<svg width="320" height="240" viewBox="0 0 320 240" fill="none" xmlns="http://www.w3.org/2000/svg">
  <rect width="320" height="240" rx="36" fill="#DDF6FF"/>
  <path d="M60 72C60 54.3269 74.3269 40 92 40H213C230.673 40 245 54.3269 245 72V123C245 140.673 230.673 155 213 155H145L116 182V155H92C74.3269 155 60 140.673 60 123V72Z" fill="#FFF9F0" stroke="#1D3342" stroke-width="4"/>
  <path d="M97 83H205" stroke="#1D3342" stroke-width="4" stroke-linecap="round"/>
  <path d="M97 107H174" stroke="#1D3342" stroke-width="4" stroke-linecap="round"/>
  <path d="M97 131H187" stroke="#1D3342" stroke-width="4" stroke-linecap="round"/>
  <path d="M230 163C230 148.641 241.641 137 256 137H262C276.359 137 288 148.641 288 163V171C288 185.359 276.359 197 262 197H249L235 210V197C226.716 195.398 220 188.135 220 179.5V163H230Z" fill="#FF8F6B"/>
  <path d="M36 170L48 158L60 170L48 182L36 170Z" fill="#7CE0D1"/>
  <path d="M265 46L270 57L282 59L273 67L275 79L265 73L255 79L257 67L248 59L260 57L265 46Z" fill="#FFCF58"/>
  <path d="M86 202C103.673 202 118 187.673 118 170C118 152.327 103.673 138 86 138C68.3269 138 54 152.327 54 170C54 187.673 68.3269 202 86 202Z" fill="#88B9FF"/>
  <text x="86" y="178" text-anchor="middle" fill="#1D3342" font-family="Trebuchet MS, sans-serif" font-size="18" font-weight="700">chat</text>
  <text x="160" y="218" text-anchor="middle" fill="#1D3342" font-family="Trebuchet MS, sans-serif" font-size="28" font-weight="700">Let's Go</text>
</svg>
